<?xml version="1.0" encoding="utf-8"?>
<!-- Generator: Adobe Illustrator 24.0.2, SVG Export Plug-In . SVG Version: 6.00 Build 0)  -->
<svg version="1.1" id="Layer_1" xmlns="http://www.w3.org/2000/svg" xmlns:xlink="http://www.w3.org/1999/xlink" x="0px" y="0px"
	 viewBox="0 0 512 512" style="enable-background:new 0 0 512 512;" xml:space="preserve">
<style type="text/css">
	.st0{fill:#FFFFFF;}
</style>
<g>
	<g>
		<path class="st0" d="M358.9,228.6c-0.7-0.7-1.9-1.2-3-1.4c-1.4-0.2-2.3-0.2-3.5,0.2c-0.9,0.5-1.9,0.9-2.6,1.9s-1.2,2.1-1.4,3.5
			l-2.6,13.4c-0.2,1.4-0.2,2.6,0,3.8c0.2,1.2,0.9,2.1,1.6,2.8c0.7,0.7,1.9,1.2,3,1.4c1.4,0.2,2.3,0.2,3.5-0.2
			c0.9-0.5,1.9-0.9,2.6-1.9c0.7-0.9,1.2-2.1,1.4-3.5l0.2-0.9l-3-0.7l-0.2,0.9c-0.2,0.7-0.5,1.4-0.7,2.1c-0.5,0.5-0.7,0.9-1.4,1.2
			c-0.5,0.2-1.2,0.2-1.9,0s-1.2-0.5-1.6-0.7c-0.5-0.5-0.7-0.9-0.7-1.4c-0.2-0.7,0-1.4,0-2.1l2.6-13.4c0.2-0.7,0.5-1.4,0.7-2.1
			c0.5-0.5,0.7-0.9,1.4-1.2c0.5-0.2,1.2-0.2,1.6-0.2c0.7,0.2,1.2,0.5,1.6,0.7c0.5,0.5,0.7,0.9,0.7,1.4c0.2,0.7,0,1.4,0,2.1l-0.2,0.9
			l3,0.7l0.2-0.9c0.2-1.4,0.2-2.6,0-3.8C360.3,230.2,359.6,229.3,358.9,228.6z"/>
		<polygon class="st0" points="367.5,229.8 364.7,229.1 359.6,255.6 361.4,255.8 362.6,256 370.4,257.7 371.1,254.9 363.1,253.2 		
			"/>
		
			<rect x="364.1" y="243.8" transform="matrix(0.1913 -0.9815 0.9815 0.1913 64.4394 568.8887)" class="st0" width="26.7" height="3"/>
		<path class="st0" d="M394.5,235.6c-0.7-0.7-1.9-1.2-3-1.4c-1.4-0.2-2.3-0.2-3.5,0.2c-0.9,0.5-1.9,0.9-2.6,1.9s-1.2,2.1-1.4,3.5
			l-2.6,13.4c-0.2,1.4-0.2,2.6,0,3.8c0.2,1.2,0.9,2.1,1.6,2.8c0.7,0.7,1.9,1.2,3,1.4c1.4,0.2,2.3,0.2,3.5-0.2
			c0.9-0.5,1.9-0.9,2.6-1.9c0.7-0.9,1.2-2.1,1.4-3.5l0.2-0.9l-3-0.7l-0.2,0.9c-0.2,0.7-0.5,1.4-0.7,2.1c-0.5,0.5-0.7,0.9-1.4,1.2
			c-0.5,0.2-1.2,0.2-1.9,0c-0.7-0.2-1.2-0.5-1.6-0.7c-0.5-0.5-0.7-0.9-0.7-1.4c-0.2-0.7,0-1.4,0-2.1l2.6-13.4
			c0.2-0.7,0.5-1.4,0.7-2.1c0.5-0.5,0.7-0.9,1.4-1.2c0.5-0.2,1.2-0.2,1.6-0.2s1.2,0.5,1.6,0.7c0.5,0.5,0.7,0.9,0.7,1.4
			c0.2,0.7,0.2,1.4,0,2.1l-0.2,0.9l3,0.7l0.2-0.9c0.2-1.4,0.2-2.6,0-3.8C395.9,237,395.4,236.3,394.5,235.6z"/>
		<polygon class="st0" points="413.7,238.7 410.5,238 400.8,250.6 403.4,236.8 400.4,236.1 395.2,262.4 398.3,263.1 399.7,256 
			403.9,250.9 406,264.5 409.5,265.2 406.2,247.8 		"/>
		<polygon class="st0" points="428.7,260.2 426.6,241.3 423.8,240.5 418.7,267 421.5,267.5 425,249.5 426.6,264.5 429,264.9 
			436.2,251.1 432.7,269.9 435.5,270.3 440.7,244.1 437.9,243.4 		"/>
		<polygon class="st0" points="446.1,245 444.2,244.8 439.1,271 440.9,271.3 442.1,271.5 450.5,273.1 451,270.3 442.8,268.7 
			444.4,260 452,261.4 452.4,258.6 444.9,257.2 446.8,248.1 455,249.7 455.7,246.9 447.3,245.2 		"/>
		
			<rect x="448" y="256.3" transform="matrix(0.1913 -0.9815 0.9815 0.1913 117.4544 658.3033)" class="st0" width="20.4" height="3"/>
		
			<rect x="453.7" y="271" transform="matrix(0.1913 -0.9815 0.9815 0.1913 100.6453 667.3834)" class="st0" width="3.3" height="3.3"/>
		
			<rect x="455.4" y="257.6" transform="matrix(0.1913 -0.9815 0.9815 0.1913 122.1441 666.5632)" class="st0" width="20.4" height="3"/>
		
			<rect x="461" y="272.3" transform="matrix(0.1913 -0.9815 0.9815 0.1913 105.3353 675.6427)" class="st0" width="3.3" height="3.3"/>
	</g>
	<g>
		<path class="st0" d="M310.1,185.9c-1.2-0.5-2.3-0.7-3.8-0.5c-1.4,0.2-2.6,0.5-3.5,1.2c-0.9,0.7-1.6,1.6-2.1,2.8
			c-0.5,1.2-0.7,2.6-0.5,4.2l1.4,15c0.2,1.6,0.5,2.8,1.2,4c0.7,1.2,1.4,1.9,2.6,2.3c1.2,0.5,2.3,0.7,3.8,0.5
			c1.4-0.2,2.6-0.5,3.8-1.2c0.9-0.7,1.6-1.6,2.1-2.8s0.5-2.6,0.5-4.2v-1.2l-3.5,0.2v1.2c0,0.9,0,1.6-0.2,2.3
			c-0.2,0.7-0.5,1.2-0.9,1.6s-1.2,0.7-1.9,0.7s-1.4,0-1.9-0.2c-0.5-0.2-0.9-0.7-1.4-1.4c-0.2-0.7-0.5-1.4-0.7-2.3l-1.4-15
			c0-0.9,0-1.6,0.2-2.3c0.2-0.7,0.5-1.2,0.9-1.6c0.5-0.5,1.2-0.7,1.9-0.7s1.4,0,1.9,0.2c0.5,0.2,0.9,0.7,1.4,1.4
			c0.2,0.7,0.5,1.4,0.7,2.3v1.2l3.5-0.2v-1.2c-0.2-1.6-0.5-2.8-1.2-4C312,187.3,311,186.4,310.1,185.9z"/>
		<polygon class="st0" points="319.7,184.5 316.4,184.7 319,214.3 321.1,214.3 322.3,214.1 331.2,213.4 331,210.1 322.1,210.8 		"/>
		
			<rect x="333.1" y="183.1" transform="matrix(0.9961 -8.878960e-02 8.878960e-02 0.9961 -16.2588 30.5135)" class="st0" width="3.5" height="29.8"/>
		<path class="st0" d="M350.2,182.4c-1.2-0.5-2.3-0.7-3.8-0.5c-1.4,0.2-2.6,0.5-3.5,1.2c-0.9,0.7-1.6,1.6-2.1,2.8
			c-0.5,1.2-0.7,2.6-0.5,4.2l1.4,15c0.2,1.6,0.5,2.8,1.2,4c0.7,1.2,1.4,1.9,2.6,2.3c1.2,0.5,2.3,0.7,3.8,0.5s2.6-0.5,3.8-1.2
			c0.9-0.7,1.6-1.6,2.1-2.8s0.5-2.6,0.5-4.2v-1.2l-3.5,0.2v1.2c0,0.9,0,1.6-0.2,2.3c-0.2,0.7-0.5,1.2-0.9,1.6
			c-0.5,0.5-1.2,0.7-1.9,0.7c-0.7,0-1.4,0-1.9-0.2c-0.5-0.2-0.9-0.7-1.4-1.4c-0.2-0.7-0.5-1.4-0.7-2.3l-1.4-15c0-0.9,0-1.6,0.2-2.3
			c0.2-0.7,0.5-1.2,0.9-1.6c0.5-0.5,1.2-0.7,1.9-0.7c0.7,0,1.4,0,1.9,0.2c0.5,0.2,0.9,0.7,1.4,1.4c0.2,0.7,0.5,1.4,0.7,2.3v1.2
			l3.5-0.2v-1.2c-0.2-1.6-0.5-2.8-1.2-4C352.1,183.6,351.4,182.9,350.2,182.4z"/>
		<polygon class="st0" points="371.5,179.8 367.8,180.3 361.4,196.5 360,181 356.5,181.2 359.1,210.8 362.6,210.5 361.9,202.6 
			364.7,195.8 371.3,209.6 375,209.4 366.4,191.8 		"/>
		<polygon class="st0" points="394,198.1 385.8,178.6 382.8,178.9 385.4,208.4 388.6,208.2 386.8,187.8 393.3,203.3 395.7,203 
			399.4,186.2 401.3,207 404.4,206.8 401.8,177.2 398.7,177.5 		"/>
		<polygon class="st0" points="407.9,176.5 405.8,176.8 408.6,206.3 410.5,206.3 411.9,206.1 421.2,205.1 420.8,202.1 411.6,202.8 
			410.7,193 418.9,192.2 418.7,189 410.5,189.7 409.5,179.6 418.9,178.9 418.4,175.6 409.3,176.5 		"/>
		
			<rect x="422.9" y="175.1" transform="matrix(0.9961 -8.878960e-02 8.878960e-02 0.9961 -14.8733 38.4411)" class="st0" width="3.5" height="22.5"/>
		
			<rect x="424.3" y="201.2" transform="matrix(0.9961 -8.878960e-02 8.878960e-02 0.9961 -16.3449 38.6434)" class="st0" width="3.8" height="3.8"/>
		
			<rect x="431.3" y="174.4" transform="matrix(0.9961 -8.878960e-02 8.878960e-02 0.9961 -14.7761 39.1879)" class="st0" width="3.5" height="22.5"/>
		
			<rect x="432.5" y="200.5" transform="matrix(0.9961 -8.878960e-02 8.878960e-02 0.9961 -16.2505 39.3696)" class="st0" width="3.8" height="3.8"/>
	</g>
	<g>
		<path class="st0" d="M329.6,260.9c-1.2-1.2-2.8-2.1-4.7-2.6c-1.9-0.5-3.8-0.7-5.4-0.2c-1.6,0.5-3,1.2-4.2,2.6s-2.1,3-2.8,5.4
			l-5.9,20.6c-0.7,2.1-0.7,4.2-0.5,5.9c0.2,1.9,0.9,3.3,2.1,4.5c1.2,1.2,2.8,2.1,4.7,2.6c1.9,0.5,3.8,0.7,5.4,0.2
			c1.6-0.5,3-1.2,4.2-2.6s2.1-3,2.8-5.2l0.5-1.6l-4.7-1.4l-0.5,1.6c-0.5,1.2-0.9,2.3-1.4,3c-0.7,0.7-1.4,1.2-2.1,1.6
			c-0.9,0.2-1.6,0.2-2.8,0c-0.9-0.2-1.9-0.7-2.3-1.4c-0.5-0.7-0.9-1.4-0.9-2.6c0-0.9,0-2.1,0.5-3.3l5.9-20.6c0.5-1.2,0.9-2.3,1.4-3
			c0.7-0.7,1.4-1.2,2.1-1.6c0.9-0.2,1.6-0.2,2.8,0c0.9,0.2,1.9,0.7,2.3,1.4c0.5,0.7,0.9,1.4,0.9,2.6c0,0.9,0,2.1-0.5,3.3l-0.5,1.6
			l4.7,1.4l0.5-1.6c0.7-2.1,0.7-4.2,0.5-5.9C331.4,263.5,330.7,262.1,329.6,260.9z"/>
		<polygon class="st0" points="343.2,264 338.7,262.6 327,303.2 329.8,303.9 331.7,304.3 343.6,307.8 345,303.6 332.8,300.1 		"/>
		
			<rect x="335.3" y="287.4" transform="matrix(0.2775 -0.9607 0.9607 0.2775 -21.0234 551.7014)" class="st0" width="42" height="4.9"/>
		<path class="st0" d="M384.7,276.9c-1.2-1.2-2.8-2.1-4.7-2.6c-1.9-0.5-3.8-0.7-5.4-0.2c-1.6,0.5-3,1.2-4.2,2.6s-2.1,3-2.8,5.4
			l-5.9,20.6c-0.7,2.1-0.7,4.2-0.5,5.9c0.2,1.9,0.9,3.3,2.1,4.5s2.8,2.1,4.7,2.6c1.9,0.5,3.8,0.7,5.4,0.2c1.6-0.5,3-1.2,4.2-2.6
			c1.2-1.4,2.1-3,2.8-5.2l0.5-1.6l-4.7-1.4l-0.5,1.6c-0.5,1.2-0.9,2.3-1.4,3c-0.7,0.7-1.4,1.2-2.1,1.6c-0.9,0.2-1.6,0.2-2.8,0
			c-0.9-0.2-1.9-0.7-2.3-1.4s-0.9-1.4-0.9-2.6c0-0.9,0-2.1,0.5-3.3l5.9-20.6c0.5-1.2,0.9-2.3,1.4-3c0.7-0.7,1.4-1.2,2.1-1.6
			c0.9-0.2,1.6-0.2,2.8,0c0.9,0.2,1.9,0.7,2.3,1.4s0.9,1.4,0.9,2.6c0,0.9,0,2.1-0.5,3.3l-0.5,1.6l4.7,1.4l0.5-1.6
			c0.7-2.1,0.7-4.2,0.5-5.9C386.5,279.5,385.8,278.1,384.7,276.9z"/>
		<polygon class="st0" points="414,284.4 409,283 392.2,301 398.3,279.9 393.6,278.5 381.8,318.9 386.5,320.3 389.6,309.5 
			396.9,302 398.3,323.8 403.7,325.2 401.1,297.8 		"/>
		<polygon class="st0" points="434.4,320 433.7,290 429.2,288.8 417.7,329.2 422.2,330.6 430.1,302.7 430.6,326.4 434.1,327.3 
			447.5,306.9 439.3,335.5 443.7,336.7 455.2,296.4 451,295.2 		"/>
		<polygon class="st0" points="463.7,298.7 460.9,298 449.1,338.3 452,339.3 453.8,339.7 466.5,343.5 467.9,339 455.2,335.3 
			459,321.9 470.2,325.2 471.6,320.7 460.4,317.5 464.4,303.6 477,307.4 478.2,302.9 465.6,299.4 		"/>
		
			<rect x="464.8" y="317.9" transform="matrix(0.2775 -0.9607 0.9607 0.2775 39.6587 693.4431)" class="st0" width="32.1" height="4.9"/>
		
			<rect x="471.6" y="340.4" transform="matrix(0.2775 -0.9607 0.9607 0.2775 13.0618 703.3939)" class="st0" width="5.2" height="5.2"/>
		
			<rect x="476.1" y="321.2" transform="matrix(0.2775 -0.9607 0.9607 0.2775 44.652 706.6857)" class="st0" width="32.1" height="4.9"/>
		
			<rect x="482.9" y="343.7" transform="matrix(0.2775 -0.9607 0.9607 0.2775 18.0557 716.6353)" class="st0" width="5.2" height="5.2"/>
	</g>
	<g>
		<polygon class="st0" points="20.1,203.3 50.5,203.3 50.5,295.9 68.6,295.9 68.6,203.3 99.1,203.3 99.1,185.9 20.1,185.9 		"/>
		<polygon class="st0" points="120.2,185.9 112.7,185.9 112.7,295.9 120.2,295.9 130.7,295.9 184.9,295.9 184.9,278.5 130.7,278.5 
			130.7,249.9 176.5,249.9 176.5,232.6 130.7,232.6 130.7,203.3 184.9,203.3 184.9,185.9 130.7,185.9 		"/>
		<path class="st0" d="M276.8,204c-3.3-6.1-8-10.8-13.8-14.3c-5.9-3.3-12.9-4.9-20.6-4.9s-14.8,1.6-20.6,4.9
			c-5.9,3.3-10.6,8-13.8,14.3c-3.3,6.1-4.9,13.1-4.9,21.3v31.2c0,8,1.6,15.2,4.9,21.3c3.3,6.1,8,10.8,13.8,14.3
			c5.9,3.3,12.9,4.9,20.6,4.9s14.8-1.6,20.6-4.9c5.9-3.3,10.6-8,13.8-14.3s4.9-13.1,4.9-21.3v-31.2
			C281.7,217.3,280.1,210.3,276.8,204z M263.2,257c0,4.5-0.9,8.2-2.6,11.5c-1.6,3.3-4.2,5.9-7.3,7.7s-6.8,2.8-11,2.8
			s-7.7-0.9-11-2.8c-3-1.9-5.6-4.5-7.3-7.7c-1.6-3.3-2.6-7.3-2.6-11.5v-32.1c0-4.5,0.9-8.2,2.6-11.5c1.6-3.3,4.2-5.9,7.3-7.7
			c3-1.9,6.8-2.8,11-2.8s7.7,0.9,11,2.8c3,1.9,5.6,4.5,7.3,7.7c1.6,3.3,2.6,7.3,2.6,11.5V257z"/>
	</g>
</g>
</svg>
